<svg width="580" height="400" xmlns="http://www.w3.org/2000/svg">
 <!-- Created with Method Draw - http://github.com/duopixel/Method-Draw/ -->
 <g>
  <title>background</title>
  <g display="none" overflow="visible" y="0" x="0" height="100%" width="100%" id="canvasGrid">
   <rect fill="url(#gridpattern)" stroke-width="0" y="0" x="0" height="100%" width="100%"/>
  </g>
 </g>
 <g>
  <title>Layer 1</title>
  <path stroke="#000" id="svg_1" d="m227.048704,331.894211c-109.810229,-80.642285 -149.071761,-131.655147 -149.38995,-194.10412c-0.290167,-56.92989 48.176158,-111.875617 98.402973,-111.558755c25.081028,0.158542 78.881436,21.111863 97.932343,38.141654c9.598969,8.580592 14.145505,7.734461 35.516585,-6.609821c58.163061,-39.039 114.95988,-39.858414 151.743994,-2.189053c58.788832,60.203557 48.085679,132.097598 -30.767933,206.671135c-41.923115,39.647624 -133.473998,109.984731 -143.156229,109.984731c-2.94617,0 -30.072954,-18.151138 -60.281783,-40.335785l0,0.000014z" stroke-width="1.5" fill="#fff"/>
 </g>
</svg>
